<svg xmlns="http://www.w3.org/2000/svg" viewBox="0 0 42 42">
  <path fill="#DC1928" d="M21 42c11.598 0 21-9.402 21-21S32.598 0 21 0 0 9.402 0 21s9.402 21 21 21z"/>
  <path fill="#FFF" d="M30 19.333h-7.333V12h-3.334v7.333H12v3.334h7.333V30h3.334v-7.333H30z"/>
  <path fill="#FFF" d="M16 16h4v4h-4z"/> 
  <path d="M 21 7 C 13.268 7 7 13.268 7 21 C 7 28.732 13.268 35 21 35 C 28.732 35 35 28.732 35 21 C 35 13.268 28.732 7 21 7 Z M 21 27 C 17.686 27 15 24.314 15 21 C 15 17.686 17.686 15 21 15 C 24.314 15 27 17.686 27 21 C 27 24.314 24.314 27 21 27 Z" fill="#DC1928" opacity="0"/>
  <circle cx="21" cy="21" r="15" fill="#DC1928" />
  <path fill="#FFF" d="M26.5 21a5.5 5.5 0 0 1-5.5 5.5h-5V15.5h5a5.5 5.5 0 0 1 5.5 5.5zm-3 0a2.5 2.5 0 0 0-2.5-2.5h-2v5h2a2.5 2.5 0 0 0 2.5-2.5z"/>
  <path fill="none" stroke="#FFF" stroke-width="2.5" d="M8 21h26"/>
  <path fill="#FFF" d="M34 21c0 7.18-5.82 13-13 13S8 28.18 8 21 13.82 8 21 8s13 5.82 13 13z"/>
  <path fill="#DC1928" d="M21 11c-5.523 0-10 4.477-10 10s4.477 10 10 10 10-4.477 10-10-4.477-10-10-10zm0 17c-3.866 0-7-3.134-7-7s3.134-7 7-7 7 3.134 7 7-3.134 7-7 7z"/>
  <path fill="#DC1928" d="M23 16h-4v10h4c2.761 0 5-2.239 5-5s-2.239-5-5-5zm0 7h-1v-4h1c1.657 0 3 1.343 3 3s-1.343 3-3 3z"/>
</svg>
